<svg xmlns="http://www.w3.org/2000/svg" xmlns:svg="http://www.w3.org/2000/svg" xmlns:xlink="http://www.w3.org/1999/xlink" id="svg8" width="1600" height="1200" version="1.1" viewBox="0 0 423.333 317.5"><defs id="defs2"><marker style="overflow:visible" id="TriangleInM" orient="auto" refX="0" refY="0"><path transform="scale(-0.4)" style="fill:context-stroke;fill-rule:evenodd;stroke:context-stroke;stroke-width:1pt" id="path2125" d="M 5.77,0 -2.88,5 V -5 Z"/></marker><marker style="overflow:visible" id="TriangleOutM" orient="auto" refX="0" refY="0"><path transform="scale(0.4)" style="fill:context-stroke;fill-rule:evenodd;stroke:context-stroke;stroke-width:1pt" id="path2134" d="M 5.77,0 -2.88,5 V -5 Z"/></marker><marker id="Arrow1Lend" orient="auto" refX="0" refY="0" style="overflow:visible"><path id="path1038" d="M 0,0 5,-5 -12.5,0 5,5 Z" style="fill:#000;fill-opacity:1;fill-rule:evenodd;stroke:#000;stroke-width:1pt;stroke-opacity:1" transform="matrix(-0.8,0,0,-0.8,-10,0)"/></marker><clipPath id="d-5"><use id="use923" width="100%" height="100%" x="0" y="0" overflow="visible" xlink:href="#c" style="overflow:visible"/></clipPath><path id="a" d="M -5,-1 H 57 V 61 H -5 Z"/><path id="c" d="M -5,-1 H 57 V 61 H -5 Z"/><clipPath id="d-5-3"><use id="use973" width="100%" height="100%" x="0" y="0" overflow="visible" xlink:href="#c-1"/></clipPath><path id="a-3" d="M -5,-1 H 57 V 61 H -5 Z"/><path id="c-1" d="M -5,-1 H 57 V 61 H -5 Z"/><path id="a-7" d="M -5,-1 H 57 V 61 H -5 Z"/><clipPath id="d-5-35"><use id="use13428" width="100%" height="100%" x="0" y="0" overflow="visible" xlink:href="#c-0"/></clipPath><path id="a-85" d="M -5,-1 H 57 V 61 H -5 Z"/><path id="c-0" d="M -5,-1 H 57 V 61 H -5 Z"/><path id="a-1" d="M -5,-1 H 57 V 61 H -5 Z"/><clipPath id="d-5-6"><use id="use14218" width="100%" height="100%" x="0" y="0" overflow="visible" xlink:href="#c-7" style="overflow:visible"/></clipPath><path id="a-85-9" d="M -5,-1 H 57 V 61 H -5 Z"/><path id="c-7" d="M -5,-1 H 57 V 61 H -5 Z"/><marker style="overflow:visible" id="TriangleOutM-5" orient="auto" refX="0" refY="0"><path transform="scale(0.4)" style="fill:context-stroke;fill-rule:evenodd;stroke:context-stroke;stroke-width:1pt" id="path2134-5" d="M 5.77,0 -2.88,5 V -5 Z"/></marker><marker style="overflow:visible" id="TriangleOutM-5-0" orient="auto" refX="0" refY="0"><path transform="scale(0.4)" style="fill:context-stroke;fill-rule:evenodd;stroke:context-stroke;stroke-width:1pt" id="path2134-5-5" d="M 5.77,0 -2.88,5 V -5 Z"/></marker><marker style="overflow:visible" id="TriangleInM-4" orient="auto" refX="0" refY="0"><path transform="scale(-0.4)" style="fill:context-stroke;fill-rule:evenodd;stroke:context-stroke;stroke-width:1pt" id="path2125-1" d="M 5.77,0 -2.88,5 V -5 Z"/></marker><marker style="overflow:visible" id="TriangleInM-1" orient="auto" refX="0" refY="0"><path transform="scale(-0.4)" style="fill:context-stroke;fill-rule:evenodd;stroke:context-stroke;stroke-width:1pt" id="path2125-11" d="M 5.77,0 -2.88,5 V -5 Z"/></marker><defs id="defs979"><path id="path1015" d="M -5,-1 H 57 V 61 H -5 Z"/></defs><clipPath id="b"><use id="use981" width="100%" height="100%" x="0" y="0" overflow="visible" xlink:href="#a-3"/></clipPath><defs id="defs985"><path id="path1020" d="M -5,-1 H 57 V 61 H -5 Z"/></defs><clipPath id="d"><use id="use987" width="100%" height="100%" x="0" y="0" overflow="visible" xlink:href="#c-1"/></clipPath><marker style="overflow:visible" id="TriangleOutM-5-0-3" orient="auto" refX="0" refY="0"><path transform="scale(0.4)" style="fill:context-stroke;fill-rule:evenodd;stroke:context-stroke;stroke-width:1pt" id="path2134-5-5-1" d="M 5.77,0 -2.88,5 V -5 Z"/></marker><marker style="overflow:visible" id="TriangleOutM-5-0-3-9" orient="auto" refX="0" refY="0"><path transform="scale(0.4)" style="fill:context-stroke;fill-rule:evenodd;stroke:context-stroke;stroke-width:1pt" id="path2134-5-5-1-5" d="M 5.77,0 -2.88,5 V -5 Z"/></marker></defs><metadata id="metadata5"/><g id="layer1" transform="translate(0,-191.16666)"><rect style="fill:#fff;fill-opacity:1;fill-rule:nonzero;stroke:none;stroke-width:.374177;stroke-linecap:round;stroke-linejoin:round;stroke-miterlimit:4;stroke-dasharray:none;stroke-dashoffset:0;stroke-opacity:1;paint-order:normal" id="rect14283" width="423.333" height="317.5" x="0" y="191.167"/><rect style="fill:#fff;stroke:#000;stroke-width:.79375;stroke-linecap:round;stroke-linejoin:round;stroke-miterlimit:4;stroke-dasharray:none;stroke-opacity:1" id="rect975-5-6" width="38.62" height="16.571" x="315.271" y="283.931" ry="8.285"/><rect style="fill:#fff;stroke:#000;stroke-width:.79375;stroke-linecap:round;stroke-linejoin:round;stroke-miterlimit:4;stroke-dasharray:none;stroke-opacity:1" id="rect975-0-6" width="38.62" height="16.571" x="315.271" y="317.073" ry="8.285"/><rect style="fill:#fff;stroke:#000;stroke-width:.79375;stroke-linecap:round;stroke-linejoin:round;stroke-miterlimit:4;stroke-dasharray:none;stroke-opacity:1" id="rect975-3-0" width="38.62" height="16.571" x="315.271" y="350.214" ry="8.285"/><rect style="fill:#fff;stroke:#000;stroke-width:.79375;stroke-linecap:round;stroke-linejoin:round;stroke-miterlimit:4;stroke-dasharray:none;stroke-opacity:1" id="rect975-65-5" width="38.62" height="16.571" x="315.271" y="383.356" ry="8.285"/><rect style="fill:#fff;stroke:#000;stroke-width:.79375;stroke-linecap:round;stroke-linejoin:round;stroke-miterlimit:4;stroke-dasharray:none;stroke-opacity:1" id="rect975-2-2" width="38.62" height="16.571" x="353.891" y="366.785" ry="8.285"/><rect style="fill:#fff;stroke:#000;stroke-width:.79375;stroke-linecap:round;stroke-linejoin:round;stroke-miterlimit:4;stroke-dasharray:none;stroke-opacity:1" id="rect975-6-0" width="38.62" height="16.571" x="353.891" y="300.502" ry="8.285"/><rect style="fill:#fff;stroke:#000;stroke-width:.79375;stroke-linecap:round;stroke-linejoin:round;stroke-miterlimit:4;stroke-dasharray:none;stroke-opacity:1" id="rect975-1-6" width="38.62" height="16.571" x="353.891" y="333.644" ry="8.285"/><rect style="fill:#fff;stroke:#000;stroke-width:.79375;stroke-linecap:round;stroke-linejoin:round;stroke-miterlimit:4;stroke-dasharray:none;stroke-opacity:1" id="rect975-65-5-8" width="38.62" height="16.571" x="353.891" y="399.926" ry="8.285"/><path style="fill:none;stroke:#000;stroke-width:.79375;stroke-linecap:butt;stroke-linejoin:miter;stroke-miterlimit:4;stroke-dasharray:none;stroke-opacity:1;marker-start:url(#TriangleInM-1)" id="path5787-6-3-3" d="M 351.95308,407.77711 H 282.03695 L 211.66666,342.71994"/><path style="fill:none;stroke:#000;stroke-width:.794;stroke-linecap:butt;stroke-linejoin:miter;stroke-miterlimit:4;stroke-dasharray:none;stroke-opacity:1;marker-end:url(#TriangleOutM)" id="path5781" d="m 107.78359,242.44558 h 42.49973 l 38.67622,62.67705"/><path style="fill:none;stroke:#000;stroke-width:.794;stroke-linecap:butt;stroke-linejoin:miter;stroke-miterlimit:4;stroke-dasharray:none;stroke-opacity:1;marker-end:url(#TriangleOutM-5)" id="path5781-4" d="m 69.187192,225.43208 h 85.544998 l 38.95685,77.12969"/><path style="fill:none;stroke:#000;stroke-width:.794;stroke-linecap:butt;stroke-linejoin:miter;stroke-miterlimit:4;stroke-dasharray:none;stroke-opacity:1;marker-end:url(#TriangleOutM-5-0)" id="path5781-4-8" d="m 69.28994,458.39434 h 85.54499 l 38.95685,-77.12969"/><path style="fill:none;stroke:#000;stroke-width:.794;stroke-linecap:butt;stroke-linejoin:miter;stroke-miterlimit:4;stroke-dasharray:none;stroke-opacity:1;marker-end:url(#TriangleOutM)" id="path5783" d="M 69.409729,259.11433 H 145.7854 l 38.98804,48.93156"/><path style="fill:none;stroke:#000;stroke-width:.794;stroke-linecap:butt;stroke-linejoin:miter;stroke-miterlimit:4;stroke-dasharray:none;stroke-opacity:1;marker-end:url(#TriangleOutM)" id="path5785" d="m 107.40942,275.78308 h 34.40723 l 38.46666,36.42553"/><path style="fill:none;stroke:#000;stroke-width:.794;stroke-linecap:butt;stroke-linejoin:miter;stroke-miterlimit:4;stroke-dasharray:none;stroke-opacity:1;marker-end:url(#TriangleOutM)" id="path5787" d="m 69.22264,292.45183 h 67.56693 l 38.83991,25.6033"/><path style="fill:none;stroke:#000;stroke-width:.794;stroke-linecap:butt;stroke-linejoin:miter;stroke-miterlimit:4;stroke-dasharray:none;stroke-opacity:1;marker-end:url(#TriangleOutM)" id="path5789" d="m 107.86109,308.59142 h 24.69515 l 39.2613,16.50292"/><path style="fill:none;stroke:#000;stroke-width:.794;stroke-linecap:butt;stroke-linejoin:miter;stroke-miterlimit:4;stroke-dasharray:none;stroke-opacity:1;marker-end:url(#TriangleOutM)" id="path5791" d="m 68.925954,324.99558 h 59.396956 l 40.99232,8.26051"/><path style="fill:none;stroke:#000;stroke-width:.794;stroke-linecap:butt;stroke-linejoin:miter;stroke-miterlimit:4;stroke-dasharray:none;stroke-opacity:1;marker-end:url(#TriangleOutM)" id="path5781-7" d="m 107.70618,441.04786 h 42.31264 l 38.61332,-62.5397"/><path style="fill:none;stroke:#000;stroke-width:.794;stroke-linecap:butt;stroke-linejoin:miter;stroke-miterlimit:4;stroke-dasharray:none;stroke-opacity:1;marker-end:url(#TriangleOutM)" id="path5783-5" d="M 69.332318,424.37911 H 145.5209 l 38.92513,-48.79421"/><path style="fill:none;stroke:#000;stroke-width:.794;stroke-linecap:butt;stroke-linejoin:miter;stroke-miterlimit:4;stroke-dasharray:none;stroke-opacity:1;marker-end:url(#TriangleOutM)" id="path5785-9" d="m 108.08036,407.71036 h 33.47179 l 38.42714,-36.28819"/><path style="fill:none;stroke:#000;stroke-width:.794;stroke-linecap:butt;stroke-linejoin:miter;stroke-miterlimit:4;stroke-dasharray:none;stroke-opacity:1;marker-end:url(#TriangleOutM)" id="path5787-6" d="M 69.332318,391.04161 H 136.52507 L 175.419,365.45872"/><path style="fill:none;stroke:#000;stroke-width:.794;stroke-linecap:butt;stroke-linejoin:miter;stroke-miterlimit:4;stroke-dasharray:none;stroke-opacity:1;marker-end:url(#TriangleOutM)" id="path5789-7" d="m 107.78367,374.90202 h 24.50807 l 39.33871,-16.52928"/><path style="fill:none;stroke:#000;stroke-width:.794;stroke-linecap:butt;stroke-linejoin:miter;stroke-miterlimit:4;stroke-dasharray:none;stroke-opacity:1;marker-end:url(#TriangleOutM)" id="path5791-9" d="m 68.848543,358.49786 h 59.209867 l 41.13989,-8.31025"/><path style="fill:none;stroke:#000;stroke-width:.794;stroke-linecap:butt;stroke-linejoin:miter;stroke-miterlimit:4;stroke-dasharray:none;stroke-opacity:1;marker-end:url(#TriangleOutM)" id="path5793" d="m 108.04818,341.66433 h 60.41704"/><rect style="fill:#fff;stroke:#000;stroke-width:.79375;stroke-linecap:round;stroke-linejoin:round;stroke-miterlimit:4;stroke-dasharray:none;stroke-opacity:1" id="rect975" width="38.62" height="16.571" x="69.321" y="233.955" ry="8.285"/><rect style="fill:#fff;stroke:#000;stroke-width:.661987;stroke-linecap:round;stroke-linejoin:round;stroke-miterlimit:4;stroke-dasharray:none;stroke-opacity:1" id="rect975-50-0-0-9" width="38.62" height="16.571" x="69.32" y="200.813" ry="8.285"/><rect style="fill:#fff;fill-opacity:1;stroke:#000;stroke-width:.794;stroke-linecap:round;stroke-linejoin:round;stroke-miterlimit:4;stroke-dasharray:none;stroke-opacity:1;paint-order:normal" id="rect975-5" width="38.62" height="16.571" x="30.7" y="217.384" ry="8.285"/><rect style="fill:#fff;stroke:#000;stroke-width:.79375;stroke-linecap:round;stroke-linejoin:round;stroke-miterlimit:4;stroke-dasharray:none;stroke-opacity:1" id="rect975-6" width="38.62" height="16.571" x="30.7" y="250.525" ry="8.285"/><rect style="fill:#fff;stroke:#000;stroke-width:.79375;stroke-linecap:round;stroke-linejoin:round;stroke-miterlimit:4;stroke-dasharray:none;stroke-opacity:1" id="rect975-0" width="38.62" height="16.571" x="69.321" y="267.096" ry="8.285"/><rect style="fill:#fff;stroke:#000;stroke-width:.79375;stroke-linecap:round;stroke-linejoin:round;stroke-miterlimit:4;stroke-dasharray:none;stroke-opacity:1" id="rect975-1" width="38.62" height="16.571" x="30.7" y="283.667" ry="8.285"/><rect style="fill:#fff;stroke:#000;stroke-width:.79375;stroke-linecap:round;stroke-linejoin:round;stroke-miterlimit:4;stroke-dasharray:none;stroke-opacity:1" id="rect975-3" width="38.62" height="16.571" x="69.321" y="300.238" ry="8.285"/><rect style="fill:#fff;stroke:#000;stroke-width:.661987;stroke-linecap:round;stroke-linejoin:round;stroke-miterlimit:4;stroke-dasharray:none;stroke-opacity:1" id="rect975-65" width="38.62" height="16.571" x="69.321" y="333.379" ry="8.285"/><rect style="fill:#fff;stroke:#000;stroke-width:.79375;stroke-linecap:round;stroke-linejoin:round;stroke-miterlimit:4;stroke-dasharray:none;stroke-opacity:1" id="rect975-2" width="38.62" height="16.571" x="30.7" y="316.808" ry="8.285"/><rect style="fill:#fff;stroke:#000;stroke-width:.661987;stroke-linecap:round;stroke-linejoin:round;stroke-miterlimit:4;stroke-dasharray:none;stroke-opacity:1" id="rect975-19" width="38.62" height="16.571" x="30.7" y="349.95" ry="8.285"/><rect style="fill:#fff;stroke:#000;stroke-width:.661987;stroke-linecap:round;stroke-linejoin:round;stroke-miterlimit:4;stroke-dasharray:none;stroke-opacity:1" id="rect975-64" width="38.62" height="16.571" x="69.321" y="366.52" ry="8.285"/><rect style="fill:#fff;stroke:#000;stroke-width:.661987;stroke-linecap:round;stroke-linejoin:round;stroke-miterlimit:4;stroke-dasharray:none;stroke-opacity:1" id="rect975-14" width="38.62" height="16.571" x="30.7" y="383.091" ry="8.285"/><rect style="fill:#fff;stroke:#000;stroke-width:.661987;stroke-linecap:round;stroke-linejoin:round;stroke-miterlimit:4;stroke-dasharray:none;stroke-opacity:1" id="rect975-01" width="38.62" height="16.571" x="69.321" y="399.662" ry="8.285"/><rect style="fill:#fff;stroke:#000;stroke-width:.661987;stroke-linecap:round;stroke-linejoin:round;stroke-miterlimit:4;stroke-dasharray:none;stroke-opacity:1" id="rect975-50" width="38.62" height="16.571" x="30.7" y="416.233" ry="8.285"/><rect style="fill:#fff;stroke:#000;stroke-width:.661987;stroke-linecap:round;stroke-linejoin:round;stroke-miterlimit:4;stroke-dasharray:none;stroke-opacity:1" id="rect975-01-9" width="38.62" height="16.571" x="69.321" y="432.803" ry="8.285"/><rect style="fill:#fff;stroke:#000;stroke-width:.661987;stroke-linecap:round;stroke-linejoin:round;stroke-miterlimit:4;stroke-dasharray:none;stroke-opacity:1" id="rect975-50-0" width="38.62" height="16.571" x="30.7" y="449.374" ry="8.285"/><path id="path13438" fill="#15334a" stroke-width=".733" d="m 327.75434,495.49078 c -1.98047,0 -3.37451,1.48997 -3.37451,3.47044 0,1.97124 1.39404,3.45131 3.37451,3.45131 1.97091,0 3.36462,-1.48007 3.36462,-3.45131 0,-1.98014 -1.39371,-3.47044 -3.36462,-3.47044 z m 2.29758,3.47044 c 0,1.44217 -0.90354,2.50921 -2.29758,2.50921 -1.39437,0 -2.30747,-1.06704 -2.30747,-2.50921 0,-1.4514 0.9131,-2.53789 2.30747,-2.53789 1.39404,0 2.29758,1.08649 2.29758,2.53822 z m 7.19899,-3.37419 v 5.38366 l -3.59505,-5.38366 h -1.27899 v 6.72958 h 1.01891 v -5.40278 l 3.58614,5.40278 h 1.28823 v -6.72958 z m 3.61877,5.80659 v -5.80659 h -1.03836 v 6.72958 h 4.49924 v -0.92299 z m 4.81174,-5.80659 v 6.72958 h 1.03836 v -6.72958 z m 7.52994,0 v 5.38366 l -3.59537,-5.38366 h -1.279 v 6.72958 h 1.01925 v -5.40278 l 3.58613,5.40278 h 1.28823 v -6.72958 z m 7.26228,0.90354 v -0.90354 h -4.68186 v 6.72958 h 4.68186 v -0.90387 h -3.66295 v -2.17232 h 3.53801 v -0.87519 h -3.53801 v -1.87466 z m 6.00106,1.99992 1.84565,-2.85566 v -0.0478 h -4.36441 v 0.89398 h 2.79731 l -1.78828,2.70139 v 0.0481 h 0.86529 c 0.9131,0 1.54799,0.48061 1.54799,1.14385 0,0.654 -0.54819,1.13461 -1.34592,1.13461 -0.55775,0 -1.28823,-0.22085 -2.08661,-0.68235 v 1.11484 c 0.76937,0.34612 1.46162,0.48094 2.05761,0.47138 1.40359,-0.01 2.40339,-0.83662 2.40339,-2.02859 0,-1.01925 -0.8363,-1.73061 -1.93235,-1.89411 z m 5.69155,-2.90346 h -2.44196 v 6.72958 h 2.44196 c 2.03816,0 3.57625,-1.38448 3.57625,-3.36495 0,-1.95147 -1.53809,-3.36463 -3.57658,-3.36463 z m 0.01,5.79703 h -1.41316 v -4.86481 h 1.41316 c 1.43228,0 2.49965,1.00936 2.49965,2.43208 0,1.43261 -1.03836,2.4324 -2.49965,2.4324 z m 11.51264,-5.79703 -1.92278,5.75879 -1.93234,-5.75879 h -1.18242 l 2.39384,6.72958 h 1.42272 l 2.4034,-6.72958 z m 2.32593,0 v 6.72958 h 1.03836 v -6.72958 z m 7.33776,0.90354 v -0.90354 h -4.68186 v 6.72958 h 4.68186 v -0.90387 h -3.66295 v -2.17232 h 3.53802 v -0.87519 h -3.53802 v -1.87466 z m 9.61886,-0.90354 -1.31723,5.63353 -1.74973,-5.63353 h -1.23054 l -1.66304,5.62397 -1.39404,-5.62397 h -1.23055 l 1.87467,6.72958 h 1.45173 l 1.56709,-5.73934 1.66303,5.73901 h 1.45173 l 1.79785,-6.72925 z m 6.99857,0.90354 v -0.90354 h -4.68186 v 6.72958 h 4.68186 v -0.90387 h -3.66262 v -2.17232 h 3.53768 v -0.87519 h -3.53768 v -1.87466 z m 5.68726,5.82604 h 1.32646 l -2.06684,-2.74952 c 1.10529,-0.17306 1.84598,-0.97111 1.84598,-1.99003 0,-1.12505 -0.95199,-1.99003 -2.30747,-1.99003 h -2.9707 v 6.72958 h 1.03836 v -2.71128 h 1.3169 z m -3.13422,-5.8356 h 1.89377 c 0.78817,0 1.3268,0.48062 1.3268,1.10561 0,0.64412 -0.53863,1.15374 -1.3268,1.15374 h -1.89377 z" aria-label="ONLINE 3D VIEWER"/><path style="fill:none;stroke:#000;stroke-width:.79375;stroke-linecap:butt;stroke-linejoin:miter;stroke-miterlimit:4;stroke-dasharray:none;stroke-opacity:1;marker-start:url(#TriangleInM)" id="path5787-1" d="m 313.29453,292.61661 h -27.01546 l -74.877,49.37728"/><path style="fill:none;stroke:#000;stroke-width:.79375;stroke-linecap:butt;stroke-linejoin:miter;stroke-miterlimit:4;stroke-dasharray:none;stroke-opacity:1;marker-start:url(#TriangleInM)" id="path5789-5" d="M 351.97047,308.7562 H 290.5124 l -79.11033,33.23769"/><path style="fill:none;stroke:#000;stroke-width:.79375;stroke-linecap:butt;stroke-linejoin:miter;stroke-miterlimit:4;stroke-dasharray:none;stroke-opacity:1;marker-start:url(#TriangleInM)" id="path5791-8" d="m 313.39886,325.16036 h -18.65313 l -83.34366,16.83353"/><path style="fill:none;stroke:#000;stroke-width:.79375;stroke-linecap:butt;stroke-linejoin:miter;stroke-miterlimit:4;stroke-dasharray:none;stroke-opacity:1;marker-start:url(#TriangleInM)" id="path5787-6-3" d="m 313.33263,391.20639 h -26.78906 l -74.877,-49.37728"/><path style="fill:none;stroke:#000;stroke-width:.79375;stroke-linecap:butt;stroke-linejoin:miter;stroke-miterlimit:4;stroke-dasharray:none;stroke-opacity:1;marker-start:url(#TriangleInM)" id="path5789-7-1" d="M 351.89564,375.0668 H 290.7769 l -79.11033,-33.23769"/><path style="fill:none;stroke:#000;stroke-width:.79375;stroke-linecap:butt;stroke-linejoin:miter;stroke-miterlimit:4;stroke-dasharray:none;stroke-opacity:1;marker-start:url(#TriangleInM)" id="path5791-9-1" d="M 313.39878,358.66264 H 295.01023 L 211.66657,341.82911"/><path style="fill:none;stroke:#000;stroke-width:.79375;stroke-linecap:butt;stroke-linejoin:miter;stroke-miterlimit:4;stroke-dasharray:none;stroke-opacity:1;marker-start:url(#TriangleInM)" id="path5793-4" d="M 352.09416,341.82911 H 211.66657"/><circle style="fill:#fff;fill-opacity:1;stroke:#000;stroke-width:.79375;stroke-linecap:round;stroke-linejoin:round;stroke-miterlimit:4;stroke-dasharray:none;stroke-opacity:1" id="path5021" cx="211.667" cy="341.929" r="40.786"/><g id="g1002" stroke="#000" stroke-linecap="round" stroke-linejoin="round" stroke-miterlimit="10" transform="matrix(0.89638857,0,0,0.89638857,188.36047,314.93745)"><path id="path990" fill="#4688b4" d="m 38.361,22.877 -12.4,-7.3 9.2e-5,-14.177 24.8,14.2 v 28.8 l -12.4,-7.3226 z" clip-path="url(#d)" transform="translate(0.039092,0.02257)"/><path id="path992" fill="#64c0ff" d="m 38.4,22.923 -12.522,-7.0887 0.14178,-14.4 24.78,14.166 v 28.8 l -12.522,-7.0883 z" clip-path="url(#d-5-3)" transform="rotate(120,26,30.082)"/><path id="path994" fill="#294e67" d="M 26,30 V 44.4 L 38.4,37.1 V 22.9 Z" clip-path="url(#d)"/><path id="path996" fill="#294e67" d="M 13.6,37.1 V 22.9 L 26,15.6 V 1.423 L 1.2,15.6 v 28.8 z" clip-path="url(#d)"/><path id="path998" fill="#64c0ff" d="M 26,15.6 13.6,22.9 26,30 38.4,22.9 Z" clip-path="url(#d)"/><path id="path1000" fill="#4688b4" d="M 13.6,22.9 26,30 V 44.4 L 13.6,37.1 Z" clip-path="url(#d)"/></g><text xml:space="preserve" style="font-size:10.5833px;line-height:1.25;font-family:Quicksand;-inkscape-font-specification:Quicksand;letter-spacing:0;word-spacing:0;stroke-width:.79375;stroke-miterlimit:4;stroke-dasharray:none" id="text12139-2" x="327.146" y="295.085"><tspan id="tspan12137-4" style="stroke-width:.79375;stroke-miterlimit:4;stroke-dasharray:none" x="327.146" y="295.085">obj</tspan></text><text xml:space="preserve" style="font-size:10.5833px;line-height:1.25;font-family:Quicksand;-inkscape-font-specification:Quicksand;letter-spacing:0;word-spacing:0;stroke-width:.79375;stroke-miterlimit:4;stroke-dasharray:none" id="text14299-1" x="327.247" y="328.216"><tspan id="tspan14297-6" style="stroke-width:.79375;stroke-miterlimit:4;stroke-dasharray:none" x="327.247" y="328.216">ply</tspan></text><text xml:space="preserve" style="font-size:10.5833px;line-height:1.25;font-family:Quicksand;-inkscape-font-specification:Quicksand;letter-spacing:0;word-spacing:0;stroke-width:.79375;stroke-miterlimit:4;stroke-dasharray:none" id="text15415-5" x="326.897" y="361.357"><tspan id="tspan15413-0" style="stroke-width:.79375;stroke-miterlimit:4;stroke-dasharray:none" x="326.897" y="361.357">glb</tspan></text><text xml:space="preserve" style="font-size:10.5833px;line-height:1.25;font-family:Quicksand;-inkscape-font-specification:Quicksand;letter-spacing:0;word-spacing:0;stroke-width:.79375;stroke-miterlimit:4;stroke-dasharray:none" id="text16259-2" x="323.992" y="395.504"><tspan id="tspan16257-0" style="stroke-width:.79375;stroke-miterlimit:4;stroke-dasharray:none" x="323.992" y="395.504">3dm</tspan></text><text xml:space="preserve" style="font-size:10.5833px;line-height:1.25;font-family:Quicksand;-inkscape-font-specification:Quicksand;letter-spacing:0;word-spacing:0;stroke-width:.79375;stroke-miterlimit:4;stroke-dasharray:none" id="text16259-2-0" x="364.052" y="412.069"><tspan id="tspan16257-0-4" style="stroke-width:.79375;stroke-miterlimit:4;stroke-dasharray:none" x="364.052" y="412.069">bim</tspan></text><text xml:space="preserve" style="font-size:10.5833px;line-height:1.25;font-family:Quicksand;-inkscape-font-specification:Quicksand;letter-spacing:0;word-spacing:0;stroke-width:.79375;stroke-miterlimit:4;stroke-dasharray:none" id="text15749-3" x="366.147" y="378.912"><tspan id="tspan15747-2" style="stroke-width:.79375;stroke-miterlimit:4;stroke-dasharray:none" x="366.147" y="378.912">off</tspan></text><text xml:space="preserve" style="font-size:10.5833px;line-height:1.25;font-family:Quicksand;-inkscape-font-specification:Quicksand;letter-spacing:0;word-spacing:0;stroke-width:.79375;stroke-miterlimit:4;stroke-dasharray:none" id="text13943-6" x="367.936" y="312.65"><tspan id="tspan13941-5" style="stroke-width:.79375;stroke-miterlimit:4;stroke-dasharray:none" x="367.936" y="312.65">stl</tspan></text><text xml:space="preserve" style="font-size:10.5833px;line-height:1.25;font-family:Quicksand;-inkscape-font-specification:Quicksand;letter-spacing:0;word-spacing:0;stroke-width:.79375;stroke-miterlimit:4;stroke-dasharray:none" id="text14889-0" x="365.02" y="344.786"><tspan id="tspan14887-9" style="stroke-width:.79375;stroke-miterlimit:4;stroke-dasharray:none" x="365.02" y="344.786">gltf</tspan></text><text xml:space="preserve" style="font-size:10.5833px;line-height:1.25;font-family:Quicksand;-inkscape-font-specification:Quicksand;letter-spacing:0;word-spacing:0;stroke-width:.79375;stroke-miterlimit:4;stroke-dasharray:none" id="text13089" x="41.586" y="229.532"><tspan id="tspan13087" style="stroke-width:.79375;stroke-miterlimit:4;stroke-dasharray:none" x="41.586" y="229.532">3ds</tspan></text><text xml:space="preserve" style="font-size:10.5833px;line-height:1.25;font-family:Quicksand;-inkscape-font-specification:Quicksand;letter-spacing:0;word-spacing:0;stroke-width:.79375;stroke-miterlimit:4;stroke-dasharray:none;paint-order:stroke fill markers" id="text12139" x="81.196" y="211.967"><tspan id="tspan12137" style="stroke-width:.79375;stroke-miterlimit:4;stroke-dasharray:none;paint-order:stroke fill markers" x="81.196" y="211.967">obj</tspan></text><text xml:space="preserve" style="font-size:10.5833px;line-height:1.25;font-family:Quicksand;-inkscape-font-specification:Quicksand;letter-spacing:0;word-spacing:0;stroke-width:.79375;stroke-miterlimit:4;stroke-dasharray:none" id="text13943" x="83.365" y="246.103"><tspan id="tspan13941" style="stroke-width:.79375;stroke-miterlimit:4;stroke-dasharray:none" x="83.365" y="246.103">stl</tspan></text><text xml:space="preserve" style="font-size:10.5833px;line-height:1.25;font-family:Quicksand;-inkscape-font-specification:Quicksand;letter-spacing:0;word-spacing:0;stroke-width:.79375;stroke-miterlimit:4;stroke-dasharray:none" id="text14299" x="42.676" y="261.668"><tspan id="tspan14297" style="stroke-width:.79375;stroke-miterlimit:4;stroke-dasharray:none" x="42.676" y="261.668">ply</tspan></text><text xml:space="preserve" style="font-size:10.5833px;line-height:1.25;font-family:Quicksand;-inkscape-font-specification:Quicksand;letter-spacing:0;word-spacing:0;stroke-width:.79375;stroke-miterlimit:4;stroke-dasharray:none" id="text14889" x="80.45" y="278.239"><tspan id="tspan14887" style="stroke-width:.79375;stroke-miterlimit:4;stroke-dasharray:none" x="80.45" y="278.239">gltf</tspan></text><text xml:space="preserve" style="font-size:10.5833px;line-height:1.25;font-family:Quicksand;-inkscape-font-specification:Quicksand;letter-spacing:0;word-spacing:0;stroke-width:.264583" id="text16259" x="37.931" y="295.97"><tspan id="tspan16257" style="stroke-width:.264583" x="37.931" y="295.97">3dm</tspan></text><text xml:space="preserve" style="font-size:10.5833px;line-height:1.25;font-family:Quicksand;-inkscape-font-specification:Quicksand;letter-spacing:0;word-spacing:0;stroke-width:.264583" id="text16373" x="79.61" y="312.535"><tspan id="tspan16371" style="stroke-width:.264583" x="79.61" y="312.535">fbx</tspan></text><text xml:space="preserve" style="font-size:10.5833px;line-height:1.25;font-family:Quicksand;-inkscape-font-specification:Quicksand;letter-spacing:0;word-spacing:0;stroke-width:.264583" id="text17037" x="39.206" y="329.111"><tspan id="tspan17035" style="stroke-width:.264583" x="39.206" y="329.111">dae</tspan></text><text xml:space="preserve" style="font-size:10.5833px;line-height:1.25;font-family:Quicksand;-inkscape-font-specification:Quicksand;letter-spacing:0;word-spacing:0;stroke-width:.264583" id="text17799" x="80.165" y="345.734"><tspan id="tspan17797" style="stroke-width:.264583" x="80.165" y="345.734">wrl</tspan></text><text xml:space="preserve" style="font-size:10.5833px;line-height:1.25;font-family:Quicksand;-inkscape-font-specification:Quicksand;letter-spacing:0;word-spacing:0;stroke-width:.264583" id="text18133" x="38.905" y="362.232"><tspan id="tspan18131" style="stroke-width:.264583" x="38.905" y="362.232">3mf</tspan></text><text xml:space="preserve" style="font-size:10.5833px;line-height:1.25;font-family:Quicksand;-inkscape-font-specification:Quicksand;letter-spacing:0;word-spacing:0;stroke-width:.264583" id="text18133-7" x="78.006" y="378.772"><tspan id="tspan18131-83" style="stroke-width:.264583" x="78.006" y="378.772">amf</tspan></text><text xml:space="preserve" style="font-size:10.5833px;line-height:1.25;font-family:Quicksand;-inkscape-font-specification:Quicksand;letter-spacing:0;word-spacing:0;stroke-width:.264583" id="text18657" x="43.634" y="395.358"><tspan id="tspan18655" style="stroke-width:.264583" x="43.634" y="395.358">ifc</tspan></text><text xml:space="preserve" style="font-size:10.5833px;line-height:1.25;font-family:Quicksand;-inkscape-font-specification:Quicksand;letter-spacing:0;word-spacing:0;stroke-width:.264583" id="text18133-6" x="77.335" y="410.598"><tspan id="tspan18131-8" style="stroke-width:.264583" x="77.335" y="410.598">step</tspan></text><text xml:space="preserve" style="font-size:10.5833px;line-height:1.25;font-family:Quicksand;-inkscape-font-specification:Quicksand;letter-spacing:0;word-spacing:0;stroke-width:.264583" id="text18657-4" x="39.117" y="427.298"><tspan id="tspan18655-3" style="stroke-width:.264583" x="39.117" y="427.298">iges</tspan></text><text xml:space="preserve" style="font-size:10.5833px;line-height:1.25;font-family:Quicksand;-inkscape-font-specification:Quicksand;letter-spacing:0;word-spacing:0;stroke-width:.264583" id="text18657-4-7" x="76.428" y="444.044"><tspan id="tspan18655-3-6" style="stroke-width:.264583" x="76.428" y="444.044">brep</tspan></text><path style="fill:none;stroke:#000;stroke-width:.794;stroke-linecap:butt;stroke-linejoin:miter;stroke-miterlimit:4;stroke-dasharray:none;stroke-opacity:1;marker-end:url(#TriangleOutM-5-0-3)" id="path5781-4-8-4" d="m 107.91038,474.96505 h 52.99157 l 38.11535,-91.45144"/><path style="fill:none;stroke:#000;stroke-width:.794;stroke-linecap:butt;stroke-linejoin:miter;stroke-miterlimit:4;stroke-dasharray:none;stroke-opacity:1;marker-end:url(#TriangleOutM-5-0-3-9)" id="path5781-4-8-4-9" d="m 69.320842,490.80072 95.854068,10e-6 39.03483,-106.03034"/><rect style="fill:#fff;stroke:#000;stroke-width:.661987;stroke-linecap:round;stroke-linejoin:round;stroke-miterlimit:4;stroke-dasharray:none;stroke-opacity:1" id="rect975-50-0-0" width="38.62" height="16.571" x="69.321" y="465.945" ry="8.285"/><rect style="fill:#fff;stroke:#000;stroke-width:.661987;stroke-linecap:round;stroke-linejoin:round;stroke-miterlimit:4;stroke-dasharray:none;stroke-opacity:1" id="rect975-50-0-0-6" width="38.62" height="16.571" x="30.7" y="482.515" ry="8.285"/><text xml:space="preserve" style="font-size:10.5833px;line-height:1.25;font-family:Quicksand;-inkscape-font-specification:Quicksand;letter-spacing:0;word-spacing:0;stroke-width:.264583" id="text18657-4-9" x="78.714" y="478.17"><tspan id="tspan18655-3-9" style="stroke-width:.264583" x="78.714" y="478.17">bim</tspan></text><text xml:space="preserve" style="font-size:10.5833px;line-height:1.25;font-family:Quicksand;-inkscape-font-specification:Quicksand;letter-spacing:0;word-spacing:0;stroke-width:.264583" id="text18657-4-9-5" x="37.557" y="461.625"><tspan id="tspan18655-3-9-3" style="stroke-width:.264583" x="37.557" y="461.625">fcstd</tspan></text><path style="fill:none;stroke:#000;stroke-width:.794;stroke-linecap:butt;stroke-linejoin:miter;stroke-miterlimit:4;stroke-dasharray:none;stroke-opacity:1;marker-end:url(#TriangleOutM-5-0-3)" id="path2155" d="m 107.91038,208.79093 h 52.99157 l 38.11535,91.45144"/><text xml:space="preserve" style="font-size:10.5833px;line-height:1.25;font-family:Quicksand;-inkscape-font-specification:Quicksand;letter-spacing:0;word-spacing:0;stroke-width:.79375;stroke-miterlimit:4;stroke-dasharray:none" id="text15749" x="42.634" y="494.767"><tspan id="tspan15747" style="stroke-width:.79375;stroke-miterlimit:4;stroke-dasharray:none" x="42.634" y="494.767">off</tspan></text></g></svg>