<svg xmlns="http://www.w3.org/2000/svg" xmlns:svg="http://www.w3.org/2000/svg" xmlns:xlink="http://www.w3.org/1999/xlink" id="svg100" width="1280" height="640" version="1.1" xml:space="preserve"><metadata id="metadata38"/><defs id="defs3"><path id="a" d="M-5-1h62v62H-5z"/><clipPath id="d-5"><use id="use11-8" width="100%" height="100%" overflow="visible" xlink:href="#c-8" style="overflow:visible"/></clipPath><path id="a-0" d="M-5-1h62v62H-5z"/><path id="c-8" d="M-5-1h62v62H-5z"/><clipPath id="d-5-6"><use id="use11-8-0" width="100%" height="100%" overflow="visible" xlink:href="#c" style="overflow:visible"/></clipPath><path id="a-7" d="M-5-1h62v62H-5z"/><path id="c" d="M-5-1h62v62H-5z"/><clipPath id="d-5-2"><use id="use11-8-7" width="100%" height="100%" overflow="visible" xlink:href="#c-88" style="overflow:visible"/></clipPath><path id="a-5" d="M -5,-1 H 57 V 61 H -5 Z"/><path id="c-88" d="M -5,-1 H 57 V 61 H -5 Z"/><clipPath id="d-5-8"><use id="use885" width="100%" height="100%" overflow="visible" xlink:href="#c-1"/></clipPath><path id="a-2" d="m-5-1h62v62h-62z"/><path id="c-1" d="m-5-1h62v62h-62z"/></defs><clipPath id="b"><use id="use5" width="100%" height="100%" overflow="visible" xlink:href="#a" style="overflow:visible"/></clipPath><path style="opacity:1;fill:#fff;fill-opacity:1;fill-rule:nonzero;stroke:none;stroke-width:.67433947;stroke-linecap:round;stroke-linejoin:round;stroke-miterlimit:4;stroke-dasharray:none;stroke-dashoffset:0;stroke-opacity:1;paint-order:markers stroke fill" id="path8" d="M-4.898-26.749h1280v640h-1280z" transform="translate(4.898 26.75)"/><g id="g918" transform="matrix(7.8112319,0,0,7.8112319,436.90725,84.79331)"><defs id="defs891"><path id="path929" d="M -5,-1 H 57 V 61 H -5 Z"/></defs><clipPath id="b-0"><use id="use893" width="100%" height="100%" x="0" y="0" overflow="visible" xlink:href="#a-2" style="overflow:visible"/></clipPath><g id="g916" clip-path="url(#b-0)"><defs id="defs897"><path id="path934" d="M -5,-1 H 57 V 61 H -5 Z"/></defs><clipPath id="d"><use id="use899" width="100%" height="100%" x="0" y="0" overflow="visible" xlink:href="#c-1" style="overflow:visible"/></clipPath><g id="g914" stroke-miterlimit="10" style="stroke:#000;stroke-linecap:round;stroke-linejoin:round;stroke-miterlimit:10"><path id="path902" d="m 38.361,22.877 -12.4,-7.3 9.2e-5,-14.177 24.8,14.2 v 28.8 l -12.4,-7.3226 z" clip-path="url(#d)" transform="translate(0.039092,0.02257)" style="fill:#4688b4"/><path id="path904" d="m 38.4,22.923 -12.522,-7.0887 0.14178,-14.4 24.78,14.166 v 28.8 l -12.522,-7.0883 z" clip-path="url(#d-5-8)" transform="rotate(120,26,30.082)" style="fill:#64c0ff"/><path id="path906" d="M 26,30 V 44.4 L 38.4,37.1 V 22.9 Z" clip-path="url(#d)" style="fill:#294e67"/><path id="path908" d="M 13.6,37.1 V 22.9 L 26,15.6 V 1.423 L 1.2,15.6 v 28.8 z" clip-path="url(#d)" style="fill:#294e67"/><path id="path910" d="M 26,15.6 13.6,22.9 26,30 38.4,22.9 Z" clip-path="url(#d)" style="fill:#64c0ff"/><path id="path912" d="M 13.6,22.9 26,30 V 44.4 L 13.6,37.1 Z" clip-path="url(#d)" style="fill:#4688b4"/></g></g></g></svg>