<svg xmlns="http://www.w3.org/2000/svg" xmlns:svg="http://www.w3.org/2000/svg" xmlns:xlink="http://www.w3.org/1999/xlink" id="logo" width="400" height="100" version="1.1" viewBox="0 0 400 100" xml:space="preserve"><metadata id="metadata44"/><defs id="defs8"><path id="a" d="M -5,-1 H 57 V 61 H -5 Z"/><clipPath id="d-5"><use id="use3" width="100%" height="100%" x="0" y="0" overflow="visible" xlink:href="#c" style="overflow:visible"/></clipPath><path id="a-85" d="M -5,-1 H 57 V 61 H -5 Z"/><path id="c" d="M -5,-1 H 57 V 61 H -5 Z"/></defs><clipPath id="b"><use id="use10" width="100%" height="100%" x="0" y="0" overflow="visible" xlink:href="#a" style="overflow:visible"/></clipPath><g id="g4569" transform="translate(26.537891,-12.132396)"><g style="fill:#15334a" id="g15" transform="translate(31.31856,31.943662)"><path style="fill:#15334a;stroke-width:2.22309995" id="path13" d="M 75.237,18.5 C 69.229,18.5 65,23.02 65,29.028 c 0,5.98 4.229,10.47 10.237,10.47 5.979,0 10.207,-4.49 10.207,-10.47 0,-6.007 -4.228,-10.528 -10.207,-10.528 z m 6.97,10.528 c 0,4.375 -2.741,7.612 -6.97,7.612 -4.23,0 -7,-3.237 -7,-7.612 0,-4.403 2.77,-7.699 7,-7.699 4.229,0 6.97,3.296 6.97,7.7 z M 104.046,18.792 V 35.124 L 93.14,18.792 h -3.88 v 20.415 h 3.091 v -16.39 l 10.879,16.39 h 3.908 V 18.792 Z m 10.978,17.615 V 18.792 h -3.15 v 20.415 h 13.649 v -2.8 z m 14.597,-17.615 v 20.415 h 3.15 V 18.792 Z m 22.843,0 V 35.124 L 141.557,18.792 h -3.88 v 20.415 h 3.092 v -16.39 l 10.879,16.39 h 3.908 V 18.792 Z m 22.031,2.741 v -2.741 h -14.203 v 20.415 h 14.203 v -2.742 h -11.112 v -6.59 h 10.733 V 27.22 h -10.733 v -5.687 z m 18.205,6.067 5.599,-8.663 v -0.145 h -13.24 v 2.712 h 8.486 l -5.425,8.195 v 0.146 h 2.625 c 2.77,0 4.696,1.458 4.696,3.47 0,1.984 -1.663,3.442 -4.083,3.442 -1.692,0 -3.908,-0.67 -6.33,-2.07 v 3.382 c 2.334,1.05 4.434,1.459 6.242,1.43 4.258,-0.03 7.291,-2.538 7.291,-6.154 0,-3.092 -2.537,-5.25 -5.862,-5.746 z m 17.266,-8.808 h -7.408 v 20.415 h 7.408 c 6.183,0 10.849,-4.2 10.849,-10.208 0,-5.92 -4.666,-10.207 -10.85,-10.207 z m 0.029,17.586 h -4.287 V 21.62 h 4.287 c 4.345,0 7.583,3.062 7.583,7.378 0,4.346 -3.15,7.379 -7.583,7.379 z m 34.925,-17.586 -5.833,17.47 -5.862,-17.47 h -3.587 l 7.262,20.415 h 4.316 l 7.291,-20.415 z m 7.056,0 v 20.415 h 3.15 V 18.792 Z m 22.26,2.741 v -2.741 h -14.203 v 20.415 h 14.203 v -2.742 h -11.112 v -6.59 h 10.733 V 27.22 h -10.733 v -5.687 z m 29.18,-2.741 -3.996,17.09 -5.308,-17.09 h -3.733 l -5.045,17.061 -4.229,-17.061 h -3.733 l 5.687,20.415 h 4.404 l 4.754,-17.411 5.045,17.41 h 4.404 l 5.454,-20.414 z m 21.231,2.741 v -2.741 h -14.203 v 20.415 h 14.203 v -2.742 h -11.111 v -6.59 h 10.732 V 27.22 H 313.536 V 21.533 Z M 341.9,39.207 h 4.024 l -6.27,-8.341 c 3.353,-0.525 5.6,-2.946 5.6,-6.037 0,-3.413 -2.888,-6.037 -7,-6.037 h -9.012 v 20.415 h 3.15 v -8.225 h 3.995 z m -9.508,-17.703 h 5.745 c 2.391,0 4.025,1.458 4.025,3.354 0,1.954 -1.634,3.5 -4.025,3.5 h -5.745 z" aria-label="ONLINE 3D VIEWER" transform="matrix(0.78095,0,0,0.78095,14.238,8.152)"/></g><g id="g39" transform="translate(30.51831,32.021052)"><clipPath id="b-3"><use id="use17" x="0" y="0" style="overflow:visible" width="100%" height="100%" overflow="visible" xlink:href="#a-85"/></clipPath><g id="g37" clip-path="url(#b-3)"><clipPath id="d"><use id="use20" x="0" y="0" style="overflow:visible" width="100%" height="100%" overflow="visible" xlink:href="#c"/></clipPath><g style="stroke:#000;stroke-linecap:round;stroke-linejoin:round;stroke-miterlimit:10" id="g35" stroke-miterlimit="10"><path style="fill:#4688b4" id="path23" d="m 38.361,22.877 -12.4,-7.3 9.2e-5,-14.177 24.8,14.2 v 28.8 l -12.4,-7.3226 z" clip-path="url(#d)" transform="translate(0.039092,0.02257)"/><path style="fill:#64c0ff" id="path25" d="m 38.4,22.923 -12.522,-7.0887 0.14178,-14.4 24.78,14.166 v 28.8 l -12.522,-7.0883 z" clip-path="url(#d-5)" transform="rotate(120,26,30.082)"/><path style="fill:#294e67" id="path27" d="M 26,30 V 44.4 L 38.4,37.1 V 22.9 Z" clip-path="url(#d)"/><path style="fill:#294e67" id="path29" d="M 13.6,37.1 V 22.9 L 26,15.6 V 1.423 L 1.2,15.6 v 28.8 z" clip-path="url(#d)"/><path style="fill:#64c0ff" id="path31" d="M 26,15.6 13.6,22.9 26,30 38.4,22.9 Z" clip-path="url(#d)"/><path style="fill:#4688b4" id="path33" d="M 13.6,22.9 26,30 V 44.4 L 13.6,37.1 Z" clip-path="url(#d)"/></g></g></g></g></svg>